<?xml version="1.0" standalone="no"?>
<!DOCTYPE svg PUBLIC "-//W3C//DTD SVG 20010904//EN"
 "http://www.w3.org/TR/2001/REC-SVG-20010904/DTD/svg10.dtd">
<svg version="1.0" xmlns="http://www.w3.org/2000/svg"
 width="768.000000pt" height="768.000000pt" viewBox="0 0 768.000000 768.000000"
 preserveAspectRatio="xMidYMid meet">

<g transform="translate(0.000000,768.000000) scale(0.100000,-0.100000)"
fill="#000000" stroke="none">
<path d="M190 5719 c0 -17 48 -95 74 -121 16 -17 75 -18 946 -18 511 0 931 -4
934 -9 10 -16 -30 -281 -45 -296 -7 -7 -274 -11 -804 -13 -437 -1 -795 -6
-795 -10 0 -12 68 -115 82 -124 7 -4 342 -8 745 -8 703 0 733 -1 742 -19 6
-11 7 -32 2 -52 -5 -19 -17 -79 -27 -134 -10 -55 -23 -103 -28 -107 -6 -4
-277 -8 -603 -8 -325 0 -594 -4 -597 -8 -2 -4 13 -36 35 -70 l39 -62 538 0
c439 0 542 -3 557 -14 18 -13 18 -17 2 -92 -9 -44 -19 -101 -22 -129 -13 -93
27 -85 -426 -85 -334 0 -401 -2 -405 -14 -8 -20 63 -123 89 -130 12 -3 172 -6
355 -6 261 0 334 -3 338 -13 2 -7 -5 -58 -16 -112 -11 -55 -20 -114 -20 -131
0 -17 -6 -37 -14 -43 -15 -13 -99 -18 -299 -20 -127 -1 -128 -1 -121 -23 3
-12 22 -43 41 -69 l35 -48 156 -3 157 -3 -3 -60 c-1 -33 -9 -91 -17 -130 -8
-38 -22 -113 -31 -165 -9 -52 -20 -115 -24 -140 -4 -25 -15 -85 -24 -134 -11
-65 -12 -94 -4 -103 8 -10 127 -13 592 -13 655 0 759 6 1011 56 248 48 476
185 600 360 61 85 89 149 120 269 42 166 30 313 -37 465 -53 119 -215 234
-391 278 -43 11 -82 23 -85 27 -9 9 14 22 73 41 154 52 298 147 380 252 48 61
108 176 131 250 21 71 19 265 -5 335 -64 195 -220 315 -479 367 -187 39 -256
40 -1874 47 -1381 5 -1578 4 -1578 -8z m3022 -464 c117 -17 202 -55 236 -105
73 -108 46 -272 -64 -391 -62 -65 -108 -91 -219 -125 -82 -25 -108 -27 -302
-32 -194 -4 -213 -3 -219 13 -4 9 7 105 25 213 17 109 39 244 48 302 9 58 23
113 31 123 13 15 36 17 191 17 104 0 216 -6 273 -15z m-77 -1114 c170 -45 258
-116 290 -235 15 -57 16 -74 5 -128 -39 -200 -167 -301 -434 -343 -115 -18
-547 -27 -562 -12 -7 6 48 378 76 517 5 25 15 79 22 119 19 119 7 115 287 108
195 -5 250 -9 316 -26z"/>
<path d="M4433 5710 c-27 -11 -27 -11 -59 -205 -14 -88 -28 -162 -30 -164 -2
-2 1 -12 7 -22 8 -17 22 -19 105 -19 95 0 96 0 129 -33 42 -42 51 -89 36 -176
-16 -89 -40 -233 -52 -303 -19 -121 -28 -175 -39 -233 -6 -33 -15 -85 -20
-115 -5 -30 -14 -82 -20 -115 -6 -33 -15 -85 -20 -115 -5 -30 -14 -82 -20
-115 -6 -33 -15 -91 -20 -130 -14 -103 -38 -253 -50 -310 -14 -66 -25 -125
-50 -270 -50 -291 -77 -399 -119 -484 -42 -86 -86 -137 -156 -179 -88 -52
-144 -65 -258 -58 -56 3 -119 8 -139 12 -36 6 -37 5 -47 -33 -16 -58 -71 -354
-71 -380 0 -16 8 -25 27 -29 48 -12 572 4 653 20 189 38 310 97 415 205 38 38
83 96 101 128 40 70 98 226 115 311 7 34 17 68 21 75 5 9 98 13 354 17 294 4
348 7 356 20 5 8 70 132 144 275 213 409 269 516 303 579 18 32 66 125 107
205 41 80 91 178 112 216 21 39 82 156 136 260 54 105 127 244 161 310 169
325 210 404 300 580 53 105 106 204 116 221 38 63 34 64 -240 64 -185 -1 -250
-4 -263 -14 -9 -7 -47 -73 -83 -147 -36 -74 -73 -147 -82 -164 -9 -16 -221
-437 -470 -935 -250 -498 -460 -911 -468 -919 -8 -8 -17 -12 -20 -9 -3 3 -17
77 -30 164 -35 227 -32 210 -110 619 -38 198 -41 258 -16 395 15 86 41 251 60
383 13 92 42 151 90 183 36 23 53 27 127 29 47 1 89 7 94 11 5 5 23 92 40 194
29 174 30 185 14 197 -14 10 -140 13 -583 12 -311 0 -576 -4 -588 -9z"/>
</g>
</svg>
